PathFileType	4	(X/Y/Z)	RBDS016\RBDS016runT25.trc
DataRate	CameraRate	NumFrames	NumMarkers	Units	OrigDataRate	OrigDataStartFrame	OrigNumFrames
150.000000	150.000000	4	33	mm	150.000000	2250	4500
Frame#	Time	L.ASIS			L.Heel.Bottom			L.Heel.Lateral			L.Heel.Top			L.Iliac.Crest			L.MT1			L.MT5			L.PSIS			L.Shank.Bottom.Lateral			L.Shank.Bottom.Medial			L.Shank.Top.Lateral			L.Shank.Top.Medial			L.Thigh.Bottom.Lateral			L.Thigh.Bottom.Medial			L.Thigh.Top.Lateral			L.Thigh.Top.Medial			R.ASIS			R.ASY			R.Heel.Bottom			R.Heel.Lateral			R.Heel.Top			R.Iliac.Crest			R.MT1			R.MT5			R.PSIS			R.Shank.Bottom.Lateral			R.Shank.Bottom.Medial			R.Shank.Top.Lateral			R.Shank.Top.Medial			R.Thigh.Bottom.Lateral			R.Thigh.Bottom.Medial			R.Thigh.Top.Lateral			R.Thigh.Top.Medial			
		X1	Y1	Z1	X2	Y2	Z2	X3	Y3	Z3	X4	Y4	Z4	X5	Y5	Z5	X6	Y6	Z6	X7	Y7	Z7	X8	Y8	Z8	X9	Y9	Z9	X10	Y10	Z10	X11	Y11	Z11	X12	Y12	Z12	X13	Y13	Z13	X14	Y14	Z14	X15	Y15	Z15	X16	Y16	Z16	X17	Y17	Z17	X18	Y18	Z18	X19	Y19	Z19	X20	Y20	Z20	X21	Y21	Z21	X22	Y22	Z22	X23	Y23	Z23	X24	Y24	Z24	X25	Y25	Z25	X26	Y26	Z26	X27	Y27	Z27	X28	Y28	Z28	X29	Y29	Z29	X30	Y30	Z30	X31	Y31	Z31	X32	Y32	Z32	X33	Y33	Z33	

2251	15	2411.889879540453	893.6990332688802	941.4180141937784	2272.874419011117	31.6362736504149	1035.154381541706	2292.541777288784	52.28735337166787	991.204436563106	2287.80819002393	78.04946134397954	1035.710679627784	2314.522342335865	941.020557453741	896.6369310713006	2496.034771226344	46.19208557770771	1035.528765100728	2441.610652614038	43.29375791919085	937.4388317552028	2227.840862398145	905.0849544192772	1040.989586757821	2349.823282746238	157.437016792067	967.0554980647911	2331.250144951479	171.5002222110363	1018.146778282027	2361.601636711833	235.6186431497854	951.2895716866852	2345.623877217444	249.6316039298863	1000.798948873094	2417.732957593417	529.2626657283621	897.3366581004589	2361.516168610118	513.8121020348977	941.3645815742816	2375.532704418886	629.5583024388992	878.9549104627908	2322.80186548631	614.3811970865848	921.6640297775276	2436.296786810547	865.4388109391538	1175.959294449292	2052.32001956448	194.4313347760157	1170.138104911643	1958.301396398596	352.9227420182046	1109.38984393525	1983.103741238589	344.1072899066349	1157.163358674985	2010.026922143371	353.9916639269076	1111.483962296281	2368.841536636332	929.8272041417489	1227.988821936789	2030.954934033225	149.7990338026339	1137.297017553412	2001.103131891948	202.9280543470722	1229.033473727143	2242.801541332055	896.5238707905514	1136.825363701456	2098.009733887889	338.6141249763181	1188.590335375044	2092.610509038996	371.0793476584933	1149.134169732098	2175.128527721921	371.1960391748973	1202.333346273133	2165.635971531314	403.7677733687317	1161.425485483904	2381.959919618767	507.3705297920199	1220.627640910587	2327.253832084202	501.6135427965104	1173.599605506447	2355.104704569799	613.1195152261436	1237.463185972676	2303.493360976552	607.504870535798	1193.009480890482	
2252	15.00666666666667	2410.209341886895	891.7097561270645	940.9972067110165	2256.37022129929	32.17708639926044	1035.176547999579	2276.060842972054	52.85348114200648	991.2224347392655	2271.366655412366	78.57711051962328	1035.715436439481	2311.971487156912	939.548366616711	896.5791276051375	2479.416817556506	46.53512340992394	1035.292265269601	2424.904123650999	43.4652905822086	937.3022867662767	2226.368960662835	904.7947952083392	1040.902042258235	2335.774255331753	158.1427887695234	967.0812077800975	2317.515901048874	172.7036696368751	1018.136452375914	2349.658508292115	235.9761434277432	951.3411217164995	2333.971654810915	250.4430566364313	1000.809039738506	2411.556668582312	527.0281532642811	897.6030700273587	2355.874700161026	512.5358738870908	942.6720383405702	2370.468874779252	627.7865287348274	879.4539949939276	2318.244656828703	613.5273311876184	923.1237049426484	2435.094567547923	863.5400558082723	1176.680663581338	2067.218832527108	192.7233534372921	1170.408748961644	1969.474052388633	349.6165871257301	1111.561413445697	1995.210072083936	341.2365981148052	1159.009933127653	2021.234221003451	351.7189448334738	1113.096325735517	2366.009244798393	927.9193000273842	1228.625366046151	2046.338216906644	147.8594977883624	1137.866024156074	2017.043511485921	200.307634299638	1230.298511755499	2241.105910408748	895.8849913702223	1136.457687774791	2110.754007991474	337.3562524747813	1189.184403290314	2105.006833835839	369.7282041290863	1149.690398264664	2187.840480163115	370.3429904273023	1202.4463659501	2177.964957843006	402.8041425104785	1161.540961111091	2390.855941225746	507.7530687688072	1220.188420187949	2336.305933192271	500.1934328662514	1173.230451011032	2360.511415685068	612.5791034550409	1237.127102741557	2309.056204783153	605.2397783660763	1192.813938569006	
2253	15.01333333333333	2408.78363336301	890.2584819778381	940.6830094250097	2239.750797475028	32.65336533112367	1035.184974620116	2259.467966273039	53.34810202074303	991.2127261642786	2254.797554162756	79.03707096364788	1035.704219405818	2309.911662512352	939.0380516108172	896.60713803832	2462.735740917717	46.74999032569483	1035.04253764699	2408.120898098485	43.4704263774728	937.1481455827958	2225.10936044857	905.1431899243837	1040.436292716752	2321.374389326721	158.7206086886293	967.0897539121878	2303.363329368917	173.726417095554	1018.081014104036	2337.083516803085	236.1884409865927	951.3489440203861	2321.636729891581	251.0582021840583	1000.763011230648	2404.400183438743	525.0672957241868	897.9438606840828	2349.15480611703	511.7506459254326	943.9678486791166	2364.899631412436	626.432954976442	880.026451647973	2313.077580863745	613.3211271508781	924.5955226988494	2433.884095835462	862.9159327580702	1177.335981771665	2082.87190961546	190.3480104018864	1170.517296906425	1980.828677593316	345.1494999847271	1113.714052315492	2007.433529695283	337.2871152976476	1160.838533096233	2032.549445504781	348.5697985299245	1114.78536282456	2363.312236261531	927.5056216769398	1228.889475593483	2062.725419937488	145.2098540902347	1138.149946506757	2033.606454866534	196.6888184694232	1231.264048408217	2239.591355565399	896.0844640877095	1135.809386052691	2123.575569053331	335.6503533194918	1189.793000631652	2117.340437911009	367.8681441302714	1150.244451619268	2200.473244198063	369.4309452110156	1202.560489738974	2190.040837023566	401.7215349244086	1161.661575454283	2399.726100733392	508.991252683617	1219.884141258985	2345.319590276002	499.6153427342013	1173.07317435321	2365.907663761967	612.7910762653815	1236.975258923574	2314.593712061252	603.6826869385286	1192.913381424284	
2254	15.02	2407.628677707903	889.3899122109273	940.4291332146365	2223.031088455899	33.08820286984873	1035.197788848087	2242.778479593343	53.8055318779986	991.1988800743286	2238.129683473696	79.44586247260577	1035.713194067881	2308.372195155831	939.4418512449721	896.6627896756243	2446.004708994446	46.79803871292999	1034.803764831214	2391.274282054449	43.34081882968227	936.9988411980484	2224.067417458612	906.0578654350039	1039.665528055055	2306.660223582482	159.2236734823229	967.1313110415838	2288.823175966414	174.6225544619176	1018.029207065787	2323.917853866028	236.3316717040574	951.3653701772997	2308.663568264141	251.5522476691125	1000.717002845517	2396.35998921838	523.4718259207752	898.3504488489663	2341.430525181659	511.523648084994	945.1967621167926	2358.900381047643	625.5633801648133	880.635614643523	2307.360762576358	613.8013337438474	926.00171516221	2432.714922328568	863.5637659091392	1177.851291939761	2099.250337780494	187.360861792798	1170.486218987468	1992.357024820193	339.4921227292302	1115.798549927987	2019.758577396895	332.2450410946462	1162.599407969376	2043.943876677405	344.5007011709981	1116.480065356777	2360.863329106808	928.4662738103954	1228.796312373688	2080.065743099002	141.8929766034369	1138.164788995649	2050.751293490913	192.1355167840678	1231.937418648098	2238.284446538622	896.9947668881177	1134.943794493922	2136.420530821753	333.4696391789083	1190.397756725338	2129.556751858926	365.4765959721796	1150.789705504294	2212.950430016773	368.4315155028332	1202.680837302025	2201.792969373225	400.4900231900192	1161.797386272445	2408.438608302727	511.0770737009564	1219.74282157947	2354.164362704419	499.8816503687899	1173.155254930048	2371.227363271839	613.7670585592431	1237.003202406742	2320.035298861794	602.8600756815562	1193.296713753017	
